<?xml version="1.0" encoding="utf-8"?>
<!-- Generator: Adobe Illustrator 16.0.3, SVG Export Plug-In . SVG Version: 6.00 Build 0)  -->
<!DOCTYPE svg PUBLIC "-//W3C//DTD SVG 1.1//EN" "http://www.w3.org/Graphics/SVG/1.1/DTD/svg11.dtd">
<svg version="1.1" id="Layer_1" xmlns="http://www.w3.org/2000/svg" xmlns:xlink="http://www.w3.org/1999/xlink" x="0px" y="0px"
	 width="800px" height="450px" viewBox="0 0 800 450" enable-background="new 0 0 800 450" xml:space="preserve">
<g>
	<g>
		<rect x="22" fill="none" stroke="#000000" stroke-width="2" stroke-miterlimit="10" width="756" height="450"/>
		<rect x="1" fill="#FF9100" stroke="#000000" stroke-width="2" stroke-miterlimit="10" width="22" height="450"/>
		<rect x="777" fill="#FF9100" stroke="#000000" stroke-width="2" stroke-miterlimit="10" width="22" height="450"/>
		<line fill="none" stroke="#000000" stroke-width="2" stroke-miterlimit="10" x1="400" y1="0" x2="400" y2="450"/>
	</g>
	<path fill="none" stroke="#000000" stroke-width="2" stroke-miterlimit="10" d="M36,225"/>
	<g>
		<rect x="23" y="171" fill="none" stroke="#000000" stroke-width="2" stroke-miterlimit="10" width="170" height="108"/>
		<g>
			<path fill="none" stroke="#000000" stroke-width="2" stroke-miterlimit="10" d="M248.57,224.929C248.57,254.634,223,279,193,279
				c0,0,0-24.366,0-54.071c0-29.704,0-53.929,0-53.929C223,173.39,248.57,195.225,248.57,224.929z"/>
			<g>
				<g>
					<path fill="none" stroke="#000000" stroke-miterlimit="10" d="M188.503,171.228c1.649-0.149,3.316-0.228,4.997-0.228v5"/>
					<path fill="none" stroke="#000000" stroke-miterlimit="10" stroke-dasharray="10.8889,10.8889" d="M193.5,187
						c0,0,0,23.212,0,38.071c0,17.812,0,43.929,0,43.929"/>
					<path fill="none" stroke="#000000" stroke-miterlimit="10" d="M193.5,274v5c-1.671-0.133-3.328-0.328-4.968-0.58"/>
					<path fill="none" stroke="#000000" stroke-miterlimit="10" stroke-dasharray="9.4743,9.4743" d="M179.292,276.337
						c-23.439-7.044-41.362-26.397-41.362-51.266c0-26.445,20.265-48.658,45.879-53.216"/>
				</g>
			</g>
		</g>
		<path fill="none" stroke="#000000" stroke-width="2" stroke-miterlimit="10" d="M64,41v-0.006c0,0,0.626-0.005,0.766-0.005
			c101.627,0,184.137,82.385,184.137,184.013c0,101.625-82.323,184.01-183.95,184.01c-0.139,0-0.734-0.215-0.734-0.215 M65.5,41h-1
			h-41H65.5z M65.5,409h-42H65.5z"/>
		<g>
			<line fill="none" stroke="#000000" stroke-miterlimit="10" x1="58.5" y1="198" x2="58.5" y2="252"/>
			<circle fill="none" stroke="#000000" stroke-miterlimit="10" cx="71.337" cy="225.279" r="7.232"/>
			<rect x="58" y="223" width="6" height="5"/>
		</g>
	</g>
	<g>
		
			<text transform="matrix(1 0 0 1 12.5 61.0229)" font-family="'ArialMT'" font-size="14" glyph-orientation-vertical="0" writing-mode="tb">Layups</text>
		<rect x="1" y="198" fill="#FF730B" stroke="#000000" stroke-width="2" stroke-miterlimit="10" width="22" height="54"/>
		
			<text transform="matrix(1 0 0 1 12.5 298.6973)" font-family="'ArialMT'" font-size="14" glyph-orientation-vertical="0" writing-mode="tb">Layups</text>
	</g>
	
		<text transform="matrix(1 0 0 1 788.5 64.1626)" font-family="'ArialMT'" font-size="14" glyph-orientation-vertical="0" writing-mode="tb">Layups</text>
	<rect x="777" y="197" fill="#FF730B" stroke="#000000" stroke-width="2" stroke-miterlimit="10" width="22" height="54"/>
	
		<text transform="matrix(1 0 0 1 788.5 301.8379)" font-family="'ArialMT'" font-size="14" glyph-orientation-vertical="0" writing-mode="tb">Layups</text>
	<rect x="607" y="171" fill="none" stroke="#000000" stroke-width="2" stroke-miterlimit="10" width="170" height="108"/>
	<g>
		<path fill="none" stroke="#000000" stroke-width="2" stroke-miterlimit="10" d="M551.43,225.071C551.43,195.366,577,171,607,171
			c0,0,0,24.366,0,54.071c0,29.704,0,53.929,0,53.929C577,276.61,551.43,254.775,551.43,225.071z"/>
		<g>
			<g>
				<path fill="none" stroke="#000000" stroke-miterlimit="10" d="M612.496,278.773C610.848,278.922,608.5,279,607.5,279v-5"/>
				<path fill="none" stroke="#000000" stroke-miterlimit="10" stroke-dasharray="10.8889,10.8889" d="M607.5,263
					c0,0,0-23.212,0-38.071c0-17.812,0-43.929,0-43.929"/>
				<path fill="none" stroke="#000000" stroke-miterlimit="10" d="M607.5,176v-5c1,0.133,3.328,0.328,4.968,0.579"/>
				<path fill="none" stroke="#000000" stroke-miterlimit="10" stroke-dasharray="9.4743,9.4743" d="M621.278,173.663
					c23.439,7.044,41.362,26.397,41.362,51.266c0,26.444-20.266,48.658-45.88,53.216"/>
			</g>
		</g>
	</g>
	<path fill="none" stroke="#000000" stroke-width="2" stroke-miterlimit="10" d="M736,409v0.006c0,0-0.342,0.006-0.48,0.006
		c-101.627,0-183.994-82.385-183.994-184.014c0-101.625,82.394-184.01,184.021-184.01c0.139,0,0.485,0.215,0.485,0.215 M735.07,409
		h1h41H735.07z M735.07,41h42H735.07z"/>
	<g>
		<line fill="none" stroke="#000000" stroke-miterlimit="10" x1="741.5" y1="252" x2="741.5" y2="198"/>
		<circle fill="none" stroke="#000000" stroke-miterlimit="10" cx="729.232" cy="224.721" r="7.232"/>
		<rect x="736" y="222" width="6" height="5"/>
	</g>
	<circle fill="none" stroke="#000000" stroke-width="2" stroke-miterlimit="10" cx="400.434" cy="225.066" r="54.551"/>
	<ellipse fill="none" stroke="#000000" stroke-miterlimit="10" cx="400.5" cy="225" rx="24.523" ry="23.151"/>
</g>
</svg>
